<?xml version="1.0" standalone="no"?>
<!DOCTYPE svg PUBLIC "-//W3C//DTD SVG 20010904//EN"
 "http://www.w3.org/TR/2001/REC-SVG-20010904/DTD/svg10.dtd">
<svg version="1.0" xmlns="http://www.w3.org/2000/svg"
 width="300pt" height="200pt" viewBox="0 0 300 207"
 preserveAspectRatio="xMidYMid meet">


<defs>
              <linearGradient id="grad1" x1="10%" y1="50%" x2="90%" y2="90%">
    <stop stop-color="hsl(184, 47%, 50%)" offset="5%"/>
    <stop stop-color="hsl(44, 95%, 51%)" offset="95%"/>
  </linearGradient>

</defs>
<g transform="translate(0.000000,207.000000) scale(0.100000,-0.100000)"
fill="url(#grad1)" stroke="rgb(69 181 188)" stroke-width="3" >
<path d="M426 1530 c-71 -22 -116 -107 -116 -222 l0 -58 -50 0 -50 0 0 -45 0
-45 50 0 50 0 0 -234 0 -234 -37 -9 c-33 -8 -38 -13 -41 -41 l-3 -32 136 0
136 0 -3 33 c-3 28 -8 33 -40 41 l-38 10 0 232 0 233 63 3 62 3 3 43 3 42 -65
0 -66 0 0 65 c0 69 17 118 45 129 9 3 32 6 51 6 35 0 35 0 32 43 l-3 42 -45 2
c-25 1 -58 -2 -74 -7z"/>
<path d="M1616 1530 c-71 -22 -116 -107 -116 -222 l0 -58 -50 0 -50 0 0 -45 0
-45 50 0 50 0 0 -234 0 -234 -37 -9 c-33 -8 -38 -13 -41 -41 l-3 -32 136 0
136 0 -3 33 c-3 28 -8 33 -40 41 l-38 10 0 232 0 233 63 3 62 3 3 43 3 42 -65
0 -66 0 0 65 c0 69 17 118 45 129 9 3 32 6 51 6 35 0 35 0 32 43 l-3 42 -45 2
c-25 1 -58 -2 -74 -7z"/>
<path d="M598 1523 c-12 -3 -18 -14 -18 -33 0 -29 15 -40 56 -40 l24 0 0 -378
0 -378 -37 -10 c-33 -8 -38 -13 -41 -41 l-3 -33 136 0 136 0 -3 32 c-3 28 -8
33 -40 41 l-38 9 0 419 0 419 -77 -1 c-43 -1 -86 -3 -95 -6z"/>
<path d="M1788 1523 c-12 -3 -18 -14 -18 -33 0 -29 15 -40 56 -40 l24 0 0
-378 0 -378 -37 -10 c-33 -8 -38 -13 -41 -41 l-3 -33 136 0 136 0 -3 32 c-3
28 -8 33 -40 41 l-38 9 0 419 0 419 -77 -1 c-43 -1 -86 -3 -95 -6z"/>
<path d="M2166 1469 c-33 -26 -34 -68 -3 -97 32 -30 71 -28 96 4 27 35 26 59
-4 89 -30 30 -54 31 -89 4z"/>
<path d="M830 1216 c0 -30 4 -35 28 -41 27 -6 29 -11 102 -285 63 -240 76
-280 92 -280 23 0 18 -27 -22 -115 -33 -73 -46 -85 -107 -93 l-48 -7 -3 -43
-3 -42 48 0 c98 0 178 67 223 187 12 32 59 197 103 366 81 303 82 309 110 314
23 5 27 10 27 39 l0 34 -110 0 -110 0 0 -34 c0 -30 4 -35 28 -41 l29 -6 -43
-177 c-24 -97 -46 -198 -50 -224 -7 -49 -24 -67 -24 -25 0 20 -77 347 -96 410
-4 13 2 19 25 23 27 6 31 11 31 40 l0 34 -115 0 -115 0 0 -34z"/>
<path d="M2098 1243 c-12 -3 -18 -14 -18 -34 0 -23 5 -30 28 -35 15 -3 33 -7
40 -10 9 -2 12 -59 12 -237 l0 -233 -37 -10 c-33 -8 -38 -13 -41 -41 l-3 -33
136 0 136 0 -3 32 c-3 28 -8 33 -40 41 l-38 9 0 279 0 279 -77 -1 c-43 -1 -86
-3 -95 -6z"/>
<path d="M2380 1216 c0 -32 3 -35 39 -41 38 -6 39 -8 90 -118 28 -62 51 -117
51 -123 0 -6 -25 -63 -55 -127 -52 -110 -56 -115 -92 -124 -33 -8 -38 -13 -41
-41 l-3 -32 79 0 80 0 34 83 c19 45 41 99 48 120 8 20 16 37 20 37 3 0 28 -54
55 -120 l50 -120 88 0 88 0 -3 33 c-3 29 -7 33 -44 41 -40 8 -41 9 -97 131
l-56 123 54 115 c52 110 55 115 92 124 33 8 38 13 41 41 l3 32 -79 0 -80 0
-32 -77 c-18 -43 -40 -96 -49 -117 l-17 -40 -49 117 -49 117 -83 0 -83 0 0
-34z"/>
</g>
</svg>
