<svg width="32" height="20" viewBox="0 0 32 37" fill="none" xmlns="http://www.w3.org/2000/svg">
<path d="M16 18.5C18.1217 18.5 20.1566 17.5254 21.6569 15.7907C23.1571 14.056 24 11.7033 24 9.25C24 6.79675 23.1571 4.44397 21.6569 2.70926C20.1566 0.974551 18.1217 0 16 0C13.8783 0 11.8434 0.974551 10.3431 2.70926C8.84286 4.44397 8 6.79675 8 9.25C8 11.7033 8.84286 14.056 10.3431 15.7907C11.8434 17.5254 13.8783 18.5 16 18.5ZM21.3333 9.25C21.3333 10.8855 20.7714 12.454 19.7712 13.6105C18.771 14.767 17.4145 15.4167 16 15.4167C14.5855 15.4167 13.229 14.767 12.2288 13.6105C11.2286 12.454 10.6667 10.8855 10.6667 9.25C10.6667 7.6145 11.2286 6.04598 12.2288 4.88951C13.229 3.73303 14.5855 3.08333 16 3.08333C17.4145 3.08333 18.771 3.73303 19.7712 4.88951C20.7714 6.04598 21.3333 7.6145 21.3333 9.25ZM32 33.9167C32 37 29.3333 37 29.3333 37H2.66667C2.66667 37 0 37 0 33.9167C0 30.8333 2.66667 21.5833 16 21.5833C29.3333 21.5833 32 30.8333 32 33.9167ZM29.3333 33.9043C29.3307 33.1458 28.9227 30.8642 27.1147 28.7737C25.376 26.7633 22.104 24.6667 16 24.6667C9.89333 24.6667 6.624 26.7633 4.88533 28.7737C3.07733 30.8642 2.672 33.1458 2.66667 33.9043H29.3333Z" fill="#f9bb0D"/>
</svg>
